<?xml version="1.0" ?><svg id="Layer_1" style="enable-background:new 0 0 30 30;" version="1.1" viewBox="0 0 30 30" xml:space="preserve" xmlns="http://www.w3.org/2000/svg" xmlns:xlink="http://www.w3.org/1999/xlink"><path d="M21,12  H9V9c0-3.314,2.686-6,6-6h0c3.314,0,6,2.686,6,6V12z" style="fill:none;stroke:#fff;stroke-width:2;stroke-linecap:round;stroke-linejoin:round;stroke-miterlimit:10;"/><path fill="#fff" d="M24,11H6c-1.105,0-2,0.895-2,2v12c0,1.105,0.895,2,2,2h18c1.105,0,2-0.895,2-2V13C26,11.895,25.105,11,24,11z M15,21  c-1.105,0-2-0.896-2-2c0-1.105,0.895-2,2-2s2,0.895,2,2C17,20.104,16.105,21,15,21z M21,21c-1.105,0-2-0.896-2-2  c0-1.105,0.895-2,2-2s2,0.895,2,2C23,20.104,22.105,21,21,21z M9,21c-1.105,0-2-0.896-2-2c0-1.105,0.895-2,2-2s2,0.895,2,2  C11,20.104,10.105,21,9,21z"/></svg>